# xmcd
#
# Track frame offsets: 
#        150
#        19690
#        45814
#        60352
#        96341
#        127171
#        154291
#        173572
#        195952
#
# Disc length: 3025 seconds
#
# Revision: 0
# Processed by: cddbd v1.5.2PL0 Copyright (c) Steve Scherf et al.
# Submitted via: ExactAudioCopy v1.3
#
DISCID=660bcf09
DTITLE=Doug Duffey And Badd - Play The Blues
DYEAR=2019
DGENRE=Blues Rock
TTITLE0=The Things We Used To Do
TTITLE1=Evil
TTITLE2=Have You Ever?
TTITLE3=Big Easy Street Blues
TTITLE4=Talk Of The Town
TTITLE5=My Drivin' Wheel
TTITLE6=Drink It On Down
TTITLE7=You Got That Somethin'
TTITLE8=A Memory Left To Lose
EXTD=
EXTT0=
EXTT1=
EXTT2=
EXTT3=
EXTT4=
EXTT5=
EXTT6=
EXTT7=
EXTT8=
PLAYORDER=
